<?xml version="1.0" encoding="utf-8"?>
<!-- Generator: Adobe Illustrator 19.0.0, SVG Export Plug-In . SVG Version: 6.00 Build 0)  -->
<svg version="1.1" id="Layer_1" xmlns="http://www.w3.org/2000/svg" xmlns:xlink="http://www.w3.org/1999/xlink" x="0px" y="0px"
   viewBox="0 0 512 512" style="enable-background:new 0 0 512 512;" xml:space="preserve">
<g>
  <path d="M506.4,114.1c5.6-5.9,5.3-15.1-0.6-20.7L477.7,67c-5.9-5.6-15.3-5.3-20.7,0.7l-13.1,14.1L178.6,363.4
    c-5.6,5.9-15.1,6.2-20.9,0.4l-92-90.2l-13.8-13.5c-5.8-5.6-15.1-5.6-20.7,0.3L4.2,288.1c-5.6,5.8-5.6,15.1,0.3,20.7l13.8,13.5
    l127.3,124.9l14,13.7c5.9,5.8,15.3,5.5,20.9-0.4L194,446l299.1-317.8L506.4,114.1z"/>
</g>
</svg>
