<?xml version="1.0" encoding="utf-8"?>
<!-- Generator: Adobe Illustrator 22.1.0, SVG Export Plug-In . SVG Version: 6.00 Build 0)  -->
<svg version="1.1" id="Layer_1" xmlns="http://www.w3.org/2000/svg" xmlns:xlink="http://www.w3.org/1999/xlink" x="0px" y="0px"
	 viewBox="0 0 60 60" style="enable-background:new 0 0 60 60;" xml:space="preserve">
<g id="Layer_2_1_">
	<g id="Layer_1-2">
		<path d="M42.7,32.3c5.8-7,4.8-17.3-2.2-23.1s-17.3-4.8-23.1,2.2c-5,6.1-5,14.8,0,20.9c-3.8,3.5-6,8.5-6.1,13.7v6.9
			c0,1.4,1.2,2.6,2.6,2.6s2.6-1.2,2.6-2.6l0,0V46c0-4,1.7-7.7,4.8-10.3c5.3,3.4,12.1,3.4,17.4,0c3,2.6,4.8,6.3,4.8,10.3v6.9
			c-0.1,1.4,1,2.7,2.4,2.7s2.7-1,2.7-2.4c0-0.1,0-0.2,0-0.3V46C48.7,40.8,46.5,35.8,42.7,32.3z M18.8,21.9c0-6.2,5-11.2,11.2-11.2
			s11.2,5,11.2,11.2s-5,11.2-11.2,11.2l0,0C23.8,33.1,18.8,28.1,18.8,21.9z"/>
	</g>
</g>
</svg>
