<?xml version="1.0" encoding="utf-8"?>
<!-- Generator: Adobe Illustrator 20.0.0, SVG Export Plug-In . SVG Version: 6.00 Build 0)  -->
<svg version="1.1" id="Layer_1" xmlns="http://www.w3.org/2000/svg" xmlns:xlink="http://www.w3.org/1999/xlink" x="0px" y="0px"
   viewBox="0 0 256 256" style="enable-background:new 0 0 256 256;" xml:space="preserve">
<path d="M128,22c58.4,0,106,47.6,106,106s-47.6,106-106,106S22,186.4,22,128S69.6,22,128,22 M128,0C57.3,0,0,57.3,0,128
  s57.3,128,128,128s128-57.3,128-128S198.7,0,128,0L128,0z M113.4,175.7c3-0.1,5.9-1.4,7.9-3.7L189,97.9c4.2-4.6,3.9-11.7-0.7-15.9
  c-4.6-4.2-11.7-3.9-15.9,0.7l-60,65.8L82,119.8c-4.5-4.3-11.6-4.1-15.9,0.5c-4.3,4.5-4.1,11.6,0.5,15.9l38.7,36.5
  c2.1,2,4.9,3.1,7.7,3.1C113.1,175.8,113.3,175.7,113.4,175.7z"/>
</svg>
